<?xml version="1.0" encoding="utf-8"?>
<!-- Generator: Adobe Illustrator 19.2.1, SVG Export Plug-In . SVG Version: 6.00 Build 0)  -->
<svg version="1.1" id="Capa_1" xmlns="http://www.w3.org/2000/svg" xmlns:xlink="http://www.w3.org/1999/xlink" x="0px" y="0px"
	 viewBox="0 0 512 512" style="enable-background:new 0 0 512 512;" xml:space="preserve">
<style type="text/css">
	.st0{fill:#FFFFFF;}
</style>
<g>
	<path class="st0" d="M373.9,264.7c-8.2-10.6-20.6-18-37.3-21.9c21.1-10.8,30.4-29.1,27.9-54.9c-0.9-9.4-3.4-17.5-7.8-24.4
		c-4.3-6.9-10.2-12.4-17.6-16.6c-7.4-4.2-15.4-7.4-24.1-9.6c-8.7-2.2-18.6-3.8-29.8-4.8V78.9h-32.8V131c-5.7,0-14.3,0.1-26,0.4V78.9
		h-32.8v53.6c-4.7,0.1-11.6,0.2-20.6,0.2l-45.1-0.2v34.9h23.6c10.8,0,17.1,4.8,18.9,14.5V243c1.4,0,2.6,0.1,3.4,0.2h-3.4v85.6
		c-1.1,7.2-5.2,10.9-12.3,10.9h-23.6l-6.6,39h42.6c2.7,0,6.6,0,11.7,0.1c5.1,0.1,8.9,0.1,11.5,0.1v54.3h32.8v-53.6
		c6,0.1,14.6,0.2,26,0.2v53.4h32.8v-54.3c11.6-0.6,22-1.6,31-3.2c9-1.6,17.6-4,25.9-7.3c8.2-3.3,15.1-7.5,20.6-12.5
		c5.5-5,10.1-11.3,13.7-18.9c3.6-7.7,5.9-16.5,6.9-26.6C385.3,290.6,382.1,275.4,373.9,264.7z M227.2,169.8c1,0,3.8,0,8.4-0.1
		c4.6-0.1,8.4-0.1,11.5-0.2c3.1-0.1,7.2,0.1,12.4,0.5c5.2,0.4,9.5,1,13.1,1.7s7.5,1.9,11.7,3.5c4.3,1.6,7.7,3.6,10.2,6
		c2.6,2.3,4.7,5.3,6.5,8.9c1.8,3.6,2.7,7.8,2.7,12.5c0,4-0.6,7.6-1.9,10.9c-1.3,3.3-3.2,6-5.7,8.2c-2.6,2.2-5.2,4.1-7.9,5.7
		c-2.7,1.6-6.1,2.9-10.3,3.9c-4.2,1-7.8,1.8-11,2.3c-3.1,0.6-7,1-11.7,1.2c-4.7,0.2-8.2,0.4-10.6,0.4c-2.4,0.1-5.7,0.1-9.9,0
		c-4.2-0.1-6.6-0.1-7.3-0.1L227.2,169.8L227.2,169.8L227.2,169.8z M316.7,314.8c-1.4,3.3-3.1,6.1-5.2,8.5c-2.1,2.4-4.9,4.5-8.4,6.4
		c-3.5,1.8-6.8,3.3-10.1,4.5c-3.3,1.1-7.2,2.1-11.8,3c-4.6,0.9-8.7,1.5-12.1,1.8c-3.5,0.4-7.6,0.6-12.5,0.9
		c-4.8,0.2-8.6,0.3-11.3,0.3c-2.7,0-6.1,0-10.2-0.1c-4.1-0.1-6.7-0.1-7.9-0.1v-72c1.1,0,4.5-0.1,10.1-0.2c5.6-0.1,10.2-0.2,13.7-0.2
		c3.5,0,8.4,0.2,14.7,0.6c6.2,0.4,11.5,1.1,15.8,1.9c4.3,0.9,8.9,2.2,13.9,3.9c5,1.8,9.1,3.9,12.2,6.5c3.1,2.6,5.7,5.8,7.9,9.8
		c2.1,4,3.2,8.5,3.2,13.6C318.8,307.9,318.1,311.5,316.7,314.8z"/>
</g>
</svg>
