<?xml version="1.0" encoding="utf-8"?>
<!-- Generator: Adobe Illustrator 19.2.1, SVG Export Plug-In . SVG Version: 6.00 Build 0)  -->
<svg version="1.1" id="Слой_1" xmlns="http://www.w3.org/2000/svg" xmlns:xlink="http://www.w3.org/1999/xlink" x="0px" y="0px"
	 viewBox="0 0 884.8 884.8" style="enable-background:new 0 0 884.8 884.8;" xml:space="preserve">
<style type="text/css">
	.st0{fill:#FFFFFF;}
</style>
<path class="st0" d="M711.1,372.7l-65.9,171.5c-16.4,42.7-57.6,70.8-103.1,70.8c-1,0-2,0-3-0.1l-337-9.4l28-77.5l311.1,9.4
	c0.3,0,0.6,0,0.9,0c13.6,0,25.8-8.4,30.7-21.1l65-169.2h-342l25.8-77.5h318.7c25,0,48.3,12.3,62.5,32.9
	C716.9,323.2,720,349.4,711.1,372.7z M403.5,403.6H194.5l-25.8,77.5h208.9L403.5,403.6z"/>
</svg>
