<?xml version="1.0" encoding="utf-8"?>
<!-- Generator: Adobe Illustrator 19.2.1, SVG Export Plug-In . SVG Version: 6.00 Build 0)  -->
<svg version="1.1" id="Слой_1" xmlns="http://www.w3.org/2000/svg" xmlns:xlink="http://www.w3.org/1999/xlink" x="0px" y="0px"
	 viewBox="0 0 884.8 884.8" enable-background="new 0 0 884.8 884.8" xml:space="preserve">
<g>
	<path fill="#FFFFFF" d="M99.1,294.4c37.7,1.2,61.7,1.8,72,1.8c14,0,29.8-0.4,47.4-1.1c18.6-0.6,30-0.9,34.3-0.9
		c21,0,38.3,2.2,51.9,6.5c13.7,4.3,25,12.3,34,23.8c9,11.5,13.5,25.4,13.5,41.7c0,13.5-3.1,26.5-9.4,39.1
		c-6.3,12.6-15,23.3-26.2,32.1c-11.2,8.9-22.6,15.2-34.1,19c-11.5,3.8-23.4,5.7-35.9,5.7c-9.3,0-19.6-1-30.9-3.1l-3.8-13.7l2-2.2
		c11.2,2.6,20.3,3.8,27.4,3.8c19.6,0,35.3-6.5,47.2-19.4c11.9-12.9,17.9-29.5,17.9-49.7c0-20.3-6.1-36.6-18.5-48.7
		c-12.3-12.2-30.9-18.3-55.9-18.3c-13.6,0-28.6,2.6-44.9,7.7c-1.4,11.5-2,39.3-2,83.5v103.9l0.2,43.8c0.2,16.9,0.6,27.8,1.4,32.8
		c0.7,4.9,1.8,8.2,3.3,9.9c1.4,1.7,4.1,3,8.2,4.1s14,2,29.8,2.6l1.8,1.4v11.1l-1.8,1.8c-38.1-1.2-59.6-1.8-64.4-1.8
		c-5.1,0-26.5,0.6-64.2,1.8l-1.9-1.8v-11.2l1.8-1.4c13.9-0.6,23.2-1.4,27.8-2.2c4.6-0.9,7.7-2.1,9.3-3.5c1.6-1.4,2.9-4.5,3.8-9.1
		c1-4.6,1.5-15,1.7-30.9l0.2-47.4V401.9l-0.5-43.8c-0.2-17.1-0.6-28.1-1.2-33c-0.6-4.9-1.8-8.2-3.1-9.9c-1.4-1.7-4.1-3-8.2-4.1
		c-4.1-1-14-1.8-29.8-2.5l-1.8-1.6v-11.2L99.1,294.4z"/>
	<path fill="#FFFFFF" d="M785.5,295.1l2,1.8v11l-1.8,1.6c-16.4,0.5-26.6,1.3-30.6,2.5c-4,1.2-6.8,3.2-8.5,6
		c-1.7,2.8-2.6,8.2-2.8,16.3s-0.6,30.9-1.2,68.4v103.4c0,15,0.2,31.9,0.6,50.7c0.5,18.8,1.4,29.8,2.8,32.9c1.4,3,4,5.3,7.7,6.7
		c3.7,1.4,14.4,2.4,31.9,2.8l1.8,1.6v11l-2,1.8c-24.4-1.4-45.6-2-63.7-2c-12.3,0-33.1,0.6-62.6,2l-2-1.8v-10.8l1.8-1.8
		c16.4-0.5,26.6-1.3,30.6-2.5c4-1.2,6.8-3.2,8.4-6c1.7-2.8,2.6-8.3,3-16.5c0.3-8.2,0.6-30.9,1.1-68.2V341.3l-77.4,162
		c-19.5,40.5-36.4,78.7-51,114.4h-8.8c-8.4-19.3-15.2-34.7-20.7-46.3L437.1,348.7v156.9c0,14.7,0.2,31.5,0.6,50.6s1.3,30.1,2.8,33.1
		c1.5,3,4.1,5.3,7.8,6.7c3.7,1.5,14.4,2.4,31.9,2.7l1.8,1.8v10.8l-2,2l-14.4-0.6c-14.8-0.7-27.5-1.1-38.1-1.1
		c-4.8,0-22.7,0.6-53.6,1.8l-1.8-1.8v-10.8l1.8-2c16.4-0.3,26.6-1,30.5-2.2c3.9-1.2,6.7-3.2,8.5-6.1c1.8-2.9,2.7-8.1,3-16
		c0.2-7.7,0.6-30.7,1-68.9V402.8c0-13.6-0.2-30.1-0.6-49.7c-0.4-19.5-1.3-30.8-2.7-33.9c-1.4-3-4-5.3-7.7-6.9
		c-3.7-1.5-14.4-2.4-31.9-2.7l-1.8-1.8V297l2-2c10.3,0.7,24.2,1.1,41.7,1.1c16.4,0,30.8-0.4,43.1-1.1c12.6,29,24.6,55.3,36.1,78.8
		l85,174.6l76.7-160c20.8-43.2,34.8-74.3,42-93.3c14.4,0.7,28.5,1.1,42.4,1.1C753.7,296.3,768.4,295.9,785.5,295.1z"/>
</g>
</svg>
